<?xml version="1.0" encoding="UTF-8" standalone="no"?>
<!-- Created with Inkscape (http://www.inkscape.org/) -->

<svg
   xmlns:dc="http://purl.org/dc/elements/1.1/"
   xmlns:cc="http://creativecommons.org/ns#"
   xmlns:rdf="http://www.w3.org/1999/02/22-rdf-syntax-ns#"
   xmlns:svg="http://www.w3.org/2000/svg"
   xmlns="http://www.w3.org/2000/svg"
   xmlns:sodipodi="http://sodipodi.sourceforge.net/DTD/sodipodi-0.dtd"
   xmlns:inkscape="http://www.inkscape.org/namespaces/inkscape"
   width="744.09448819"
   height="1052.3622047"
   id="svg2"
   version="1.1"
   inkscape:version="0.48.4 r9939"
   sodipodi:docname="New document 1">
  <defs
     id="defs4" />
  <sodipodi:namedview
     id="base"
     pagecolor="#ffffff"
     bordercolor="#666666"
     borderopacity="1.0"
     inkscape:pageopacity="0.0"
     inkscape:pageshadow="2"
     inkscape:zoom="1.1684615"
     inkscape:cx="60.073417"
     inkscape:cy="247.94146"
     inkscape:document-units="mm"
     inkscape:current-layer="layer1"
     showgrid="false"
     inkscape:snap-bbox="true"
     inkscape:object-nodes="true"
     showguides="true"
     inkscape:guide-bbox="true"
     inkscape:window-width="1920"
     inkscape:window-height="1018"
     inkscape:window-x="0"
     inkscape:window-y="27"
     inkscape:window-maximized="1">
    <inkscape:grid
       type="xygrid"
       id="grid2985"
       empspacing="5"
       visible="true"
       enabled="true"
       snapvisiblegridlinesonly="true"
       units="mm"
       spacingx="1mm"
       spacingy="1mm" />
  </sodipodi:namedview>
  <metadata
     id="metadata7">
    <rdf:RDF>
      <cc:Work
         rdf:about="">
        <dc:format>image/svg+xml</dc:format>
        <dc:type
           rdf:resource="http://purl.org/dc/dcmitype/StillImage" />
        <dc:title></dc:title>
      </cc:Work>
    </rdf:RDF>
  </metadata>
  <g
     inkscape:label="Layer 1"
     inkscape:groupmode="layer"
     id="layer1">
    <path
       style="fill:none;stroke:#ff0000"
       d="m 216.34375,512.59375 c -3.35254,0.13126 -6.28001,0.73155 -8.75,1.78125 -2.79936,1.19978 -4.96322,2.9447 -6.46875,5.25 -1.48201,2.28186 -2.21875,4.74036 -2.21875,7.375 0,4.0932 1.60551,7.55988 4.78125,10.40625 2.25829,2.02309 6.18253,3.73711 11.78125,5.125 4.3519,1.08212 7.15173,1.82659 8.375,2.25 1.78779,0.63516 3.013,1.41088 3.71875,2.28125 0.72921,0.84688 1.09372,1.87052 1.09375,3.09375 -3e-5,1.90545 -0.84529,3.56505 -2.5625,5 -1.69376,1.41144 -4.22986,2.12501 -7.59375,2.125 -3.17576,10e-6 -5.71185,-0.80661 -7.59375,-2.40625 -1.8584,-1.59962 -3.07589,-4.08901 -3.6875,-7.5 l -10.15625,1 c 0.68219,5.7869 2.77618,10.18416 6.28125,13.21875 0.78653,0.67568 1.65441,1.25719 2.59375,1.78125 l -15.15625,0 0,-6.90625 -28.90625,0 0,-14.0625 25.96875,0 0,-8.71875 -25.96875,0 0,-11.46875 27.90625,0 0,-8.75 -38.34375,0 0,49.90625 -17.09375,0 c 1.31857,-0.79651 2.58454,-1.7501 3.71875,-2.90625 3.66969,-3.7403 5.49996,-8.45572 5.5,-14.125 -4e-5,-5.6222 -1.81485,-10.26774 -5.4375,-13.9375 -3.62272,-3.69322 -8.26826,-5.53121 -13.9375,-5.53125 -3.66975,4e-5 -7.01248,0.81438 -10,2.4375 -2.96403,1.62319 -5.25185,3.9809 -6.875,7.0625 -1.62316,3.08167 -2.4375,6.26917 -2.4375,9.5625 0,4.30489 0.81434,7.95769 2.4375,10.96875 1.5107,2.78056 3.67427,4.93121 6.46875,6.46875 l -27.9375,0 c 2.170101,-0.90157 3.96957,-2.03735 5.375,-3.40625 2.399399,-2.32886 4.237388,-5.36116 5.53125,-9.125 1.05853,-3.08162 1.593701,-6.77339 1.59375,-11.03125 -4.9e-5,-4.8459 -0.558399,-8.89411 -1.6875,-12.1875 -1.129196,-3.31683 -2.773341,-6.12439 -4.9375,-8.40625 -2.164243,-2.28178 -4.777948,-3.88729 -7.8125,-4.78125 -2.25833,-0.65862 -5.538897,-0.9687 -9.84375,-0.96875 l -19.0625,0 0,49.90625 -55,0 0,74.40625 c 23.482973,0 42.53125,19.04828 42.53125,42.53125 0,23.48297 -19.048277,42.53125 -42.53125,42.53125 l 0,28.34375 c 3.9138289,0 7.09375,3.17992 7.09375,7.09375 0,3.91383 -3.1799211,7.0625 -7.09375,7.0625 l 0,24.8125 c 3.9138289,0 7.09375,3.17992 7.09375,7.09375 0,3.91383 -3.1799211,7.09375 -7.09375,7.09375 l 0,28.34375 c 3.9138289,0 7.09375,3.14867 7.09375,7.0625 0,3.91383 -3.1799211,7.09375 -7.09375,7.09375 l 0,187.81245 c 0,9.8158 7.9037889,17.7188 17.71875,17.7188 l 258.65625,0 c 9.81496,0 17.71875,-7.903 17.71875,-17.7188 l 0,-187.81245 c -3.91383,0 -7.09375,-3.17992 -7.09375,-7.09375 0,-3.91383 3.17992,-7.0625 7.09375,-7.0625 l 0,-28.34375 c -3.91383,0 -7.09375,-3.17992 -7.09375,-7.09375 0,-3.91383 3.17992,-7.09375 7.09375,-7.09375 l 0,-24.8125 c -3.91383,0 -7.09375,-3.14867 -7.09375,-7.0625 0,-3.91383 3.17992,-7.09375 7.09375,-7.09375 l 0,-28.34375 c -23.48297,0 -42.53125,-19.04828 -42.53125,-42.53125 0,-23.48297 19.04828,-42.53125 42.53125,-42.53125 l 0,-74.40625 -62.71875,0 c 2.18707,-1.22657 3.93411,-2.86972 5.25,-4.9375 1.64663,-2.58763 2.46871,-5.34847 2.46875,-8.3125 -4e-5,-3.26981 -0.67463,-6.00748 -2.0625,-8.21875 -1.36443,-2.23475 -3.2723,-3.97968 -5.71875,-5.25 -2.42301,-1.29379 -6.16886,-2.55025 -11.25,-3.75 -5.0812,-1.19969 -8.27643,-2.36309 -9.59375,-3.46875 -1.03507,-0.87035 -1.56252,-1.90172 -1.5625,-3.125 -2e-5,-1.34083 0.55061,-2.4189 1.65625,-3.21875 1.71723,-1.24673 4.09039,-1.87495 7.125,-1.875 2.94047,5e-5 5.13523,0.60509 6.59375,1.78125 1.48197,1.15271 2.45927,3.06058 2.90625,5.71875 L 237.625,528.25 c -0.16471,-4.75179 -1.89418,-8.55981 -5.1875,-11.40625 -3.26986,-2.84635 -8.16367,-4.24994 -14.65625,-4.25 -0.49695,10e-6 -0.95856,-0.0187 -1.4375,0 z"
       id="path3049" />
    <path
       style="fill:none;stroke:#0000ff"
       d="m 65.4375,522.21875 4.6875,0 c 4.257809,4e-5 7.103988,0.17071 8.5625,0.5 1.952457,0.42347 3.573425,1.23782 4.84375,2.4375 1.270258,1.19976 2.262995,2.85936 2.96875,5 0.705681,2.14071 1.062462,5.2197 1.0625,9.21875 -3.8e-5,3.99909 -0.356819,7.1399 -1.0625,9.46875 -0.705755,2.30536 -1.620886,3.98849 -2.75,5 -1.105659,1.01154 -2.525057,1.70158 -4.21875,2.125 -1.293845,0.32935 -3.395557,0.50001 -6.3125,0.5 l -7.78125,0 0,-34.25 z"
       id="path3047" />
    <path
       style="fill:none;stroke:#0000ff"
       d="m 124.21875,534.9375 c 2.58761,3e-5 4.7592,0.99277 6.5,2.96875 1.76426,1.97604 2.62497,4.79904 2.625,8.46875 -3e-5,3.76385 -0.86074,6.649 -2.625,8.625 -1.7408,1.97602 -3.91239,2.96875 -6.5,2.96875 -2.58766,0 -4.76697,-0.99273 -6.53125,-2.96875 -1.76431,-1.976 -2.65627,-4.81446 -2.65625,-8.53125 -2e-5,-3.71677 0.89194,-6.58646 2.65625,-8.5625 1.76428,-1.97598 3.94359,-2.96872 6.53125,-2.96875 z"
       id="rect2987" />
  </g>
</svg>
